<?xml version="1.0" encoding="UTF-8"?>
<svg version="1.1" xmlns="http://www.w3.org/2000/svg" width="941" height="457">
<path d="M0 0 C0.66 0 1.32 0 2 0 C2.83732743 3.12394391 3.66917982 6.24931974 4.5 9.375 C4.73847656 10.26445312 4.97695312 11.15390625 5.22265625 12.0703125 C5.56103516 13.34648437 5.56103516 13.34648437 5.90625 14.6484375 C6.11572266 15.43395996 6.32519531 16.21948242 6.54101562 17.02880859 C7 19 7 19 7 21 C8.18078125 21.27714844 9.3615625 21.55429687 10.578125 21.83984375 C12.13542016 22.2057143 13.69271163 22.57160054 15.25 22.9375 C16.02730469 23.11990234 16.80460937 23.30230469 17.60546875 23.49023438 C18.35957031 23.66748047 19.11367187 23.84472656 19.890625 24.02734375 C20.58188477 24.18968506 21.27314453 24.35202637 21.98535156 24.51928711 C23.99399101 24.9985662 25.99756942 25.49546602 28 26 C28 26.66 28 27.32 28 28 C24.87605609 28.83732743 21.75068026 29.66917982 18.625 30.5 C17.29082031 30.85771484 17.29082031 30.85771484 15.9296875 31.22265625 C15.07890625 31.44824219 14.228125 31.67382812 13.3515625 31.90625 C12.56604004 32.11572266 11.78051758 32.32519531 10.97119141 32.54101562 C9 33 9 33 7 33 C6.72285156 34.18078125 6.44570312 35.3615625 6.16015625 36.578125 C5.7942857 38.13542016 5.42839946 39.69271163 5.0625 41.25 C4.88009766 42.02730469 4.69769531 42.80460937 4.50976562 43.60546875 C4.33251953 44.35957031 4.15527344 45.11367188 3.97265625 45.890625 C3.81031494 46.58188477 3.64797363 47.27314453 3.48071289 47.98535156 C3.0014338 49.99399101 2.50453398 51.99756942 2 54 C1.34 54 0.68 54 0 54 C-0.83732743 50.87605609 -1.66917982 47.75068026 -2.5 44.625 C-2.85771484 43.29082031 -2.85771484 43.29082031 -3.22265625 41.9296875 C-3.44824219 41.07890625 -3.67382812 40.228125 -3.90625 39.3515625 C-4.11572266 38.56604004 -4.32519531 37.78051758 -4.54101562 36.97119141 C-5 35 -5 35 -5 33 C-6.18078125 32.72285156 -7.3615625 32.44570313 -8.578125 32.16015625 C-10.13542016 31.7942857 -11.69271163 31.42839946 -13.25 31.0625 C-14.02730469 30.88009766 -14.80460938 30.69769531 -15.60546875 30.50976562 C-16.35957031 30.33251953 -17.11367187 30.15527344 -17.890625 29.97265625 C-18.58188477 29.81031494 -19.27314453 29.64797363 -19.98535156 29.48071289 C-21.99399101 29.0014338 -23.99756942 28.50453398 -26 28 C-26 27.34 -26 26.68 -26 26 C-22.87605609 25.16267257 -19.75068026 24.33082018 -16.625 23.5 C-15.73554688 23.26152344 -14.84609375 23.02304687 -13.9296875 22.77734375 C-13.07890625 22.55175781 -12.228125 22.32617188 -11.3515625 22.09375 C-10.56604004 21.88427734 -9.78051758 21.67480469 -8.97119141 21.45898438 C-7 21 -7 21 -5 21 C-4.58427734 19.22882812 -4.58427734 19.22882812 -4.16015625 17.421875 C-3.7942857 15.86457984 -3.42839946 14.30728837 -3.0625 12.75 C-2.88009766 11.97269531 -2.69769531 11.19539063 -2.50976562 10.39453125 C-2.33251953 9.64042969 -2.15527344 8.88632812 -1.97265625 8.109375 C-1.81031494 7.41811523 -1.64797363 6.72685547 -1.48071289 6.01464844 C-1.0014338 4.00600899 -0.50453398 2.00243058 0 0 Z " fill="#7A6001" transform="translate(151,12)"/>
<path d="M0 0 C2.17723742 2.17723742 2.41899846 3.00485979 3.0703125 5.9140625 C3.24433594 6.67460937 3.41835938 7.43515625 3.59765625 8.21875 C3.77167969 9.0128125 3.94570313 9.806875 4.125 10.625 C4.30675781 11.42679687 4.48851563 12.22859375 4.67578125 13.0546875 C5.12370789 15.03499476 5.56270604 17.0173177 6 19 C7.20398438 19.26554687 8.40796875 19.53109375 9.6484375 19.8046875 C11.2240451 20.16107493 12.79956127 20.51786678 14.375 20.875 C15.1690625 21.04902344 15.963125 21.22304688 16.78125 21.40234375 C17.54179688 21.57636719 18.30234375 21.75039063 19.0859375 21.9296875 C19.7876709 22.08679199 20.4894043 22.24389648 21.21240234 22.40576172 C23 23 23 23 25 25 C22.2092793 25.83661862 19.41751988 26.66942737 16.625 27.5 C15.8309375 27.73847656 15.036875 27.97695313 14.21875 28.22265625 C13.45820312 28.44824219 12.69765625 28.67382812 11.9140625 28.90625 C11.2123291 29.11572266 10.5105957 29.32519531 9.78759766 29.54101562 C8 30 8 30 6 30 C5.73445313 31.20398438 5.46890625 32.40796875 5.1953125 33.6484375 C4.83892507 35.2240451 4.48213322 36.79956127 4.125 38.375 C3.95097656 39.1690625 3.77695312 39.963125 3.59765625 40.78125 C3.42363281 41.54179687 3.24960937 42.30234375 3.0703125 43.0859375 C2.91320801 43.7876709 2.75610352 44.4894043 2.59423828 45.21240234 C2 47 2 47 0 49 C-0.83661862 46.2092793 -1.66942737 43.41751988 -2.5 40.625 C-2.85771484 39.43390625 -2.85771484 39.43390625 -3.22265625 38.21875 C-3.44824219 37.45820313 -3.67382812 36.69765625 -3.90625 35.9140625 C-4.11572266 35.2123291 -4.32519531 34.5105957 -4.54101562 33.78759766 C-5 32 -5 32 -5 30 C-6.20398438 29.73445313 -7.40796875 29.46890625 -8.6484375 29.1953125 C-10.2240451 28.83892507 -11.79956127 28.48213322 -13.375 28.125 C-14.1690625 27.95097656 -14.963125 27.77695312 -15.78125 27.59765625 C-16.54179687 27.42363281 -17.30234375 27.24960937 -18.0859375 27.0703125 C-18.7876709 26.91320801 -19.4894043 26.75610352 -20.21240234 26.59423828 C-22 26 -22 26 -24 24 C-21.2092793 23.16338138 -18.41751988 22.33057263 -15.625 21.5 C-14.43390625 21.14228516 -14.43390625 21.14228516 -13.21875 20.77734375 C-12.45820313 20.55175781 -11.69765625 20.32617188 -10.9140625 20.09375 C-10.2123291 19.88427734 -9.5105957 19.67480469 -8.78759766 19.45898438 C-7 19 -7 19 -5 19 C-4.72285156 17.79601562 -4.44570313 16.59203125 -4.16015625 15.3515625 C-3.79440321 13.77601093 -3.42851055 12.20049177 -3.0625 10.625 C-2.88009766 9.8309375 -2.69769531 9.036875 -2.50976562 8.21875 C-2.33251953 7.45820313 -2.15527344 6.69765625 -1.97265625 5.9140625 C-1.81031494 5.2123291 -1.64797363 4.5105957 -1.48071289 3.78759766 C-1 2 -1 2 0 0 Z " fill="#FFD15D" transform="translate(24,408)"/>
<path d="M0 0 C3.00617269 3.00617269 2.59585316 5.82381598 3 10 C4.918125 10.185625 4.918125 10.185625 6.875 10.375 C10.75 10.75 10.75 10.75 13 13 C9.38026598 14.31626692 6.90432869 15 3 15 C2.87625 16.27875 2.7525 17.5575 2.625 18.875 C2.25 22.75 2.25 22.75 0 25 C-1.31626692 21.38026598 -2 18.90432869 -2 15 C-3.918125 14.814375 -3.918125 14.814375 -5.875 14.625 C-9.75 14.25 -9.75 14.25 -12 12 C-8.38026598 10.68373308 -5.90432869 10 -2 10 C-1.855625 8.72125 -1.71125 7.4425 -1.5625 6.125 C-1.29357254 3.74307106 -1.07773654 2.15547309 0 0 Z " fill="#FFD15D" transform="translate(268,288)"/>
<path d="M0 0 C0.66 0 1.32 0 2 0 C2.12375 0.62648438 2.2475 1.25296875 2.375 1.8984375 C3.03058505 4.49619326 3.68614325 6.65902397 5 9 C7.76105166 10.45404496 9.83705627 10.63703924 13 11 C13 11.66 13 12.32 13 13 C12.37351562 13.12375 11.74703125 13.2475 11.1015625 13.375 C8.50380674 14.03058505 6.34097603 14.68614325 4 16 C2.54595504 18.76105166 2.36296076 20.83705627 2 24 C1.34 24 0.68 24 0 24 C-0.12375 23.37351562 -0.2475 22.74703125 -0.375 22.1015625 C-1.03058505 19.50380674 -1.68614325 17.34097603 -3 15 C-5.76105166 13.54595504 -7.83705627 13.36296076 -11 13 C-11 12.34 -11 11.68 -11 11 C-10.37351562 10.87625 -9.74703125 10.7525 -9.1015625 10.625 C-6.50380674 9.96941495 -4.34097603 9.31385675 -2 8 C-0.54595504 5.23894834 -0.36296076 3.16294373 0 0 Z " fill="#FFD15D" transform="translate(928,313)"/>
<path d="M0 0 C0.66 0 1.32 0 2 0 C2.12375 0.62648437 2.2475 1.25296875 2.375 1.8984375 C3.03058505 4.49619326 3.68614325 6.65902397 5 9 C7.76105166 10.45404496 9.83705627 10.63703924 13 11 C13 11.66 13 12.32 13 13 C12.37351563 13.12375 11.74703125 13.2475 11.1015625 13.375 C8.50380674 14.03058505 6.34097603 14.68614325 4 16 C2.54595504 18.76105166 2.36296076 20.83705627 2 24 C1.34 24 0.68 24 0 24 C-0.12375 23.37351562 -0.2475 22.74703125 -0.375 22.1015625 C-1.03058505 19.50380674 -1.68614325 17.34097603 -3 15 C-5.76105166 13.54595504 -7.83705627 13.36296076 -11 13 C-11 12.34 -11 11.68 -11 11 C-10.37351563 10.87625 -9.74703125 10.7525 -9.1015625 10.625 C-6.50380674 9.96941495 -4.34097603 9.31385675 -2 8 C-0.54595504 5.23894834 -0.36296076 3.16294373 0 0 Z " fill="#FFD15D" transform="translate(187,0)"/>
<path d="M0 0 C0.66 0 1.32 0 2 0 C2.33 2.31 2.66 4.62 3 7 C5.31 7.33 7.62 7.66 10 8 C10 8.66 10 9.32 10 10 C7.69 10.33 5.38 10.66 3 11 C2.67 13.31 2.34 15.62 2 18 C1.34 18 0.68 18 0 18 C-0.33 15.69 -0.66 13.38 -1 11 C-3.31 10.67 -5.62 10.34 -8 10 C-8 9.34 -8 8.68 -8 8 C-4.535 7.505 -4.535 7.505 -1 7 C-0.67 4.69 -0.34 2.38 0 0 Z " fill="#7B6001" transform="translate(792,98)"/>
</svg>
